<svg class="svgicon" id="svg30" preserveAspectRatio="xMidYMid meet" xmlns="http://www.w3.org/2000/svg" viewBox="0 0 60 60"><rect x="0.8999999999999999" y="0.8999999999999999" width="58.2" height="58.2" style="stroke: rgb(247, 148, 75); fill: none; stroke-alignment: inside; stroke-width: 1.7999999999999998" rx="29.1" ry="29.1"></rect><g transform="scale(0.6) translate(20, 20)"><path style=" fill:rgb(247, 148, 75);"  class="st0" d="M29.833,56.238c-1.339,0-2.609-0.508-3.575-1.432C23.639,52.704,0.25,33.509,0.25,20.025 c0-9.423,6.839-16.263,16.261-16.263c5.392,0,10.381,2.64,13.422,7.082c3.019-4.418,8.096-7.082,13.552-7.082 c9.425,0,16.266,6.84,16.266,16.263c0,5.321-3.834,12.268-11.396,20.646c-0.277,0.307-0.753,0.331-1.06,0.054 c-0.307-0.277-0.331-0.751-0.054-1.059c7.202-7.98,11.01-14.772,11.01-19.641c0-8.554-6.21-14.763-14.766-14.763 c-4.962,0-9.578,2.42-12.348,6.475l-0.635,0.806c-0.142,0.18-0.358,0.285-0.588,0.285h-0.001c-0.23,0-0.447-0.106-0.589-0.287 l-0.4-0.51c-2.779-4.258-7.405-6.768-12.413-6.768c-8.553,0-14.761,6.209-14.761,14.763c0,13.005,24.454,32.818,25.495,33.655 c1.47,1.396,3.757,1.354,5.127,0.041c0.704-0.571,4.191-3.416,8.408-7.441c0.297-0.285,0.774-0.277,1.06,0.024 c0.286,0.3,0.275,0.774-0.024,1.061c-4.26,4.067-7.79,6.945-8.454,7.481C32.443,55.729,31.174,56.238,29.833,56.238z"></path><path style=" fill:rgb(247, 148, 75);" class="st0" d="M57.105,27.857H51.5c-0.414,0-0.75-0.336-0.75-0.75s0.336-0.75,0.75-0.75h5.605 c0.414,0,0.75,0.336,0.75,0.75S57.52,27.857,57.105,27.857z"></path><path style=" fill:rgb(247, 148, 75);" class="st0" d="M54.838,31.896h-2.421c-0.414,0-0.75-0.336-0.75-0.75s0.336-0.75,0.75-0.75h2.421 c0.414,0,0.75,0.336,0.75,0.75S55.252,31.896,54.838,31.896z"></path><path style=" fill:rgb(247, 148, 75);" class="st0" d="M27.927,31.896H5.015c-0.414,0-0.75-0.336-0.75-0.75s0.336-0.75,0.75-0.75h22.912 c0.414,0,0.75,0.336,0.75,0.75S28.341,31.896,27.927,31.896z"></path><path style=" fill:rgb(247, 148, 75);" class="st0" d="M26.827,27.857H2.811c-0.414,0-0.75-0.336-0.75-0.75s0.336-0.75,0.75-0.75h24.017 c0.414,0,0.75,0.336,0.75,0.75S27.241,27.857,26.827,27.857z"></path><path style=" fill:rgb(247, 148, 75);" class="st0" d="M35.608,47.174c-0.073,0-0.142-0.014-0.205-0.042c-0.277-0.125-0.452-0.407-0.439-0.712l0.062-1.617 l-1.707,1.038c-0.21,0.127-0.47,0.146-0.695,0.044c-0.193-0.086-0.357-0.27-0.423-0.472c-0.145-0.444,0.03-0.748,1.001-2.428 c0.864-1.497,2.171-3.76,3.036-5.93c0.585-1.475,0.859-2.961,0.986-3.949c0.053-0.411,0.436-0.703,0.84-0.648 c0.411,0.053,0.701,0.429,0.648,0.839c-0.139,1.073-0.438,2.691-1.081,4.312c-0.801,2.007-1.938,4.051-2.804,5.558l0.612-0.372 c0.235-0.144,0.532-0.146,0.77-0.006c0.238,0.14,0.38,0.399,0.369,0.676l-0.043,1.122c1.145-1.382,2.854-3.731,3.988-5.993 c0.185-0.369,0.636-0.52,1.006-0.334c0.371,0.186,0.521,0.637,0.334,1.007C41.263,40.465,37.233,47.174,35.608,47.174z"></path><path  style=" fill:rgb(247, 148, 75);" class="st0" d="M47.5,52.625c-0.233,0-0.456-0.109-0.598-0.297l-3.234-4.273l-1.775,2.729 c-0.126,0.194-0.335,0.319-0.565,0.338c-0.239,0.024-0.482-0.079-0.639-0.25c-0.316-0.345-0.288-0.671-0.104-2.796 c0.194-2.232,0.52-5.967,0.157-8.877c-0.448-3.553-2-6.577-2.016-6.607c-0.046-0.089-0.073-0.186-0.082-0.285 c-0.02-0.247,0.067-0.489,0.244-0.681c0.799-0.865,4.394-0.918,4.43-0.918c0.591,0,1.771,0,2.013,0.76 c0.349,0.637,2.202,4.155,2.907,8.152c0.742,4.208,0.564,11.814-0.111,12.69c-0.129,0.167-0.355,0.295-0.565,0.312 C47.541,52.624,47.521,52.625,47.5,52.625z M43.621,46c0.234,0,0.456,0.11,0.598,0.297l2.851,3.766 c0.191-2.315,0.283-6.833-0.308-10.183c-0.64-3.621-2.329-6.914-2.713-7.629c-0.124-0.02-0.351-0.043-0.73-0.043 c-1.075,0-2.298,0.172-2.953,0.337c0.509,1.13,1.505,3.616,1.865,6.468c0.354,2.842,0.094,6.34-0.105,8.662l0.867-1.333 c0.134-0.205,0.358-0.332,0.603-0.341C43.604,46,43.612,46,43.621,46z"></path><path style=" fill:rgb(247, 148, 75);" class="st0" d="M30.702,38.114c-0.426,0-0.845-0.117-1.218-0.344c-0.534-0.326-0.909-0.84-1.056-1.447l-1.994-8.126 c-0.306-1.254,0.467-2.524,1.72-2.833c0.074-0.019,0.151-0.026,0.229-0.021l8.76,0.586c0.414,0.028,0.727,0.385,0.698,0.799 c-0.027,0.413-0.396,0.726-0.798,0.698l-8.625-0.578c-0.396,0.148-0.629,0.573-0.527,0.992l1.995,8.128 c0.053,0.22,0.187,0.404,0.379,0.521c0.164,0.102,0.356,0.139,0.544,0.118l8.192-5c0.355-0.216,0.815-0.104,1.031,0.25 s0.104,0.815-0.25,1.031l-8.308,5.07c-0.065,0.041-0.138,0.07-0.213,0.088C31.077,38.091,30.889,38.114,30.702,38.114z"></path><path style=" fill:rgb(247, 148, 75);" class="st0" d="M51.074,32.973c-0.019,0-0.037,0-0.057-0.002l-6.45-0.484c-0.412-0.031-0.723-0.391-0.691-0.804 c0.031-0.414,0.395-0.725,0.805-0.692l6.312,0.474c0.179-0.067,0.328-0.19,0.428-0.355c0.115-0.191,0.148-0.416,0.095-0.633 l-1.993-8.133c-0.101-0.414-0.495-0.68-0.906-0.638l-6.584,4.485c-0.342,0.235-0.808,0.145-1.042-0.197 c-0.233-0.342-0.145-0.809,0.198-1.042l6.714-4.574c0.074-0.051,0.156-0.087,0.244-0.109c1.253-0.307,2.525,0.464,2.833,1.718 l1.992,8.129c0.15,0.604,0.057,1.232-0.266,1.768c-0.324,0.538-0.84,0.917-1.451,1.067 C51.194,32.966,51.135,32.973,51.074,32.973z"></path><path style=" fill:rgb(247, 148, 75);" class="st0" d="M39.393,32.997c-0.303,0-0.587-0.184-0.701-0.484l-2.147-5.654c-0.102-0.268-0.042-0.57,0.154-0.779 c1.844-1.97,4.95-1.271,5.082-1.24c0.194,0.045,0.363,0.167,0.468,0.337c0.078,0.126,1.916,3.127,3.08,6.303 c0.143,0.389-0.057,0.82-0.446,0.962c-0.388,0.143-0.819-0.057-0.962-0.446c-0.91-2.483-2.297-4.928-2.778-5.746 c-0.605-0.083-2.017-0.174-3.013,0.557l1.965,5.173c0.147,0.387-0.048,0.82-0.435,0.967 C39.571,32.981,39.481,32.997,39.393,32.997z">
</path></g></svg>