<svg class="svgicon" id="svg32" preserveAspectRatio="xMidYMid meet" xmlns="http://www.w3.org/2000/svg" viewBox="0 0 60 60"><rect x="0.8999999999999999" y="0.8999999999999999" width="58.2" height="58.2" style="stroke: rgb(247, 148, 75); fill: none; stroke-alignment: inside; stroke-width: 1.7999999999999998" rx="29.1" ry="29.1"></rect><g transform="scale(0.6) translate(20, 20)"><path style=" fill:rgb(247, 148, 75);" class="st20" d="M10.91,46.925c-1.649-0.702-3.723-0.306-5.172,1.143c-2.77,2.77-2.544,8.706-2.544,8.706 s5.98,0.179,8.705-2.545c1.447-1.448,1.845-3.519,1.145-5.168"></path><path style=" fill:rgb(247, 148, 75);" class="st20" d="M34.645,38.156l1.546,7.465c0,0,0.687,1.856-1.631,3.192c-2.316,1.335-13.685,8.743-13.685,8.743 l2.328-10.717"></path><path style=" fill:rgb(247, 148, 75);" class="st20" d="M21.788,25.355l-7.392-1.529c0,0-1.856-0.684-3.191,1.631c-1.336,2.316-8.743,13.685-8.743,13.685 l10.781-2.34"></path><path style=" fill:rgb(247, 148, 75);"  class="st20" d="M16.088,49.972c0.477,0.478,1.184,0.548,1.577,0.156l2.136-2.135"></path><path style=" fill:rgb(247, 148, 75);" class="st20" d="M12.085,40.325l-2.111,2.111c-0.393,0.393-0.322,1.1,0.155,1.578"></path><path style=" fill:rgb(247, 148, 75);" class="st20" d="M32.866,10.62c0,0,0.284-0.318,0.438-0.474C44.812-1.361,56.621,3.42,56.621,3.42 s5.101,11.489-6.727,23.316c-0.145,0.145-0.442,0.411-0.442,0.411"></path><path style=" fill:rgb(247, 148, 75);" class="st20" d="M11.962,38.54c-0.423,0.553-0.445,1.169,0,1.613l7.926,7.925c0.445,0.445,1.053,0.444,1.613-0.001 l27.988-20.985c0,0-1.805-3.501-7.423-9.119c-4.938-4.937-9.117-7.421-9.117-7.421L11.962,38.54z"></path><path style=" fill:rgb(247, 148, 75);" class="st20" d="M31.554,22.334c1.811-1.812,4.762-1.812,6.575,0c1.813,1.814,1.813,4.765,0,6.578 c-1.813,1.814-4.765,1.814-6.575,0C29.739,27.099,29.739,24.149,31.554,22.334z"></path><path style=" fill:rgb(247, 148, 75);" class="st20" d="M25.108,30.954c1.213-1.211,3.188-1.211,4.401,0c1.213,1.214,1.213,3.188,0,4.401 c-1.213,1.214-3.188,1.214-4.401,0C23.896,34.143,23.896,32.168,25.108,30.954z"></path><ellipse style=" fill:rgb(247, 148, 75);" transform="matrix(-0.7076 -0.7066 0.7066 -0.7076 94.5201 45.7353)" class="st20" cx="56.723" cy="3.311" rx="1.025" ry="0.952"></ellipse></g></svg>