<svg class="svgicon" id="svg27" preserveAspectRatio="xMidYMid meet" xmlns="http://www.w3.org/2000/svg" viewBox="0 0 60 60"><rect x="0.8999999999999999" y="0.8999999999999999" width="58.2" height="58.2" style="stroke: rgb(247, 148, 75); fill: none; stroke-alignment: inside; stroke-width: 1.7999999999999998" rx="29.1" ry="29.1"></rect><g transform="scale(0.6) translate(20, 20)"><path style=" fill:rgb(247, 148, 75);" class="st0" d="M49.76,59.75H4.902c-2.086,0-3.782-1.697-3.782-3.783V4.032c0-2.085,1.696-3.782,3.782-3.782H49.76 c2.086,0,3.783,1.696,3.783,3.782V27c0,0.414-0.336,0.75-0.75,0.75s-0.75-0.336-0.75-0.75V4.032 c0-1.258-1.024-2.282-2.283-2.282H4.902c-1.259,0-2.282,1.023-2.282,2.282v51.936c0,1.259,1.023,2.283,2.282,2.283H49.76 c1.259,0,2.283-1.024,2.283-2.283v-20.78c0-0.414,0.336-0.75,0.75-0.75s0.75,0.336,0.75,0.75v20.78 C53.543,58.053,51.846,59.75,49.76,59.75z"></path><path style=" fill:rgb(247, 148, 75);" class="st0" d="M46.102,23.563H8.312c-0.414,0-0.75-0.336-0.75-0.75s0.336-0.75,0.75-0.75h37.789 c0.414,0,0.75,0.336,0.75,0.75S46.516,23.563,46.102,23.563z"></path><path style=" fill:rgb(247, 148, 75);" class="st0" d="M46.102,29.499H8.312c-0.414,0-0.75-0.336-0.75-0.75s0.336-0.75,0.75-0.75h37.789 c0.414,0,0.75,0.336,0.75,0.75S46.516,29.499,46.102,29.499z"></path><path style=" fill:rgb(247, 148, 75);" class="st0" d="M37,35.434H17.414c-0.414,0-0.75-0.336-0.75-0.75s0.336-0.75,0.75-0.75H37 c0.414,0,0.75,0.336,0.75,0.75S37.414,35.434,37,35.434z"></path><path style=" fill:rgb(247, 148, 75);" class="st0" d="M48.251,17.833c-0.09,0-0.181-0.016-0.269-0.05c-0.044-0.017-4.515-1.725-9.557-3.198 c-0.32-0.093-0.54-0.387-0.54-0.72v-1.687c0-0.414,0.336-0.75,0.75-0.75s0.75,0.336,0.75,0.75v1.126 c2.643,0.787,5.09,1.62,6.784,2.22l-0.732-0.995c-0.125-0.169-0.173-0.383-0.132-0.59 c0.04-0.207,0.166-0.386,0.347-0.496l0.903-0.549c-0.972-0.363-2.387-0.874-4.064-1.426 c-0.394-0.129-0.607-0.553-0.479-0.947c0.13-0.393,0.55-0.606,0.947-0.478c3.258,1.072,5.549,1.995,5.572,2.004 c0.263,0.106,0.443,0.352,0.466,0.635c0.023,0.283-0.115,0.555-0.358,0.702L47.132,14.3l1.723,2.337 c0.198,0.268,0.195,0.634-0.007,0.899C48.703,17.727,48.48,17.833,48.251,17.833z"></path><path style=" fill:rgb(247, 148, 75);" class="st0" d="M6.394,17.833c-0.229,0-0.452-0.105-0.597-0.295c-0.202-0.265-0.205-0.631-0.007-0.899L7.513,14.3 l-1.508-0.916c-0.245-0.148-0.384-0.423-0.358-0.708s0.21-0.53,0.477-0.633c0.023-0.009,2.38-0.917,5.587-1.973 c0.39-0.128,0.817,0.084,0.946,0.478c0.13,0.394-0.084,0.817-0.478,0.947c-1.658,0.546-3.085,1.051-4.071,1.411 l0.885,0.537c0.181,0.109,0.307,0.289,0.347,0.496c0.041,0.207-0.007,0.421-0.132,0.59l-0.732,0.994 c1.694-0.601,4.14-1.433,6.781-2.22v-1.139c0-0.414,0.336-0.75,0.75-0.75s0.75,0.336,0.75,0.75v1.699 c0,0.333-0.22,0.626-0.54,0.72c-5.042,1.474-9.509,3.181-9.554,3.198C6.574,17.816,6.483,17.833,6.394,17.833z"></path><path style=" fill:rgb(247, 148, 75);" class="st0" d="M11.986,13.777c-0.165,0-0.327-0.055-0.46-0.158c-0.184-0.142-0.29-0.361-0.29-0.592v-4.34 c0-0.342,0.232-0.642,0.563-0.727c0.35-0.089,8.634-2.192,15.544-2.192c6.906,0,15.112,2.104,15.458,2.193 c0.331,0.085,0.562,0.384,0.562,0.726v4.34c0,0.232-0.107,0.451-0.29,0.593c-0.184,0.142-0.423,0.189-0.646,0.134 c-0.084-0.021-8.435-2.147-15.084-2.147c-6.654,0-15.088,2.126-15.173,2.148C12.11,13.77,12.048,13.777,11.986,13.777z M12.736,9.276v2.799c2.416-0.562,9.013-1.968,14.607-1.968c5.585,0,12.118,1.402,14.521,1.966V9.275 c-1.98-0.475-8.818-2.007-14.521-2.007C21.63,7.268,14.73,8.802,12.736,9.276z"></path><path style=" fill:rgb(247, 148, 75);" class="st0" d="M44.399,51.221h-20.99c-0.414,0-0.75-0.336-0.75-0.75s0.336-0.75,0.75-0.75h20.99 c0.414,0,0.75,0.336,0.75,0.75S44.813,51.221,44.399,51.221z"></path><path style=" fill:rgb(247, 148, 75);" class="st0" d="M25.005,49.208c-0.307,0-0.613-0.078-0.886-0.226c-0.953-0.521-1.287-1.743-1.322-1.881 c-0.103-0.401,0.141-0.81,0.542-0.912c0.396-0.1,0.81,0.14,0.911,0.542c0.059,0.224,0.286,0.77,0.586,0.933 c0.088,0.048,0.187,0.057,0.299,0.022c0.483-0.154,0.608-0.557,0.758-1.202c0.125-0.551,0.297-1.311,1.117-1.397 c0.783-0.081,1.309,0.75,1.812,1.686c0.153,0.28,0.346,0.633,0.441,0.701c0.241,0.122,1.02-0.143,1.271-0.572 c0.219-0.363,0.487-0.575,0.804-0.639c0.596-0.124,1.191,0.312,1.714,0.693c0.21,0.153,0.391,0.287,0.568,0.386 c0.339,0.189,0.8,0.174,1.242,0.13c0.403-0.051,0.78,0.259,0.821,0.671s-0.259,0.78-0.671,0.821 c-0.653,0.066-1.42,0.081-2.124-0.313c-0.228-0.127-0.459-0.293-0.687-0.458c-0.136-0.099-0.336-0.245-0.498-0.346 c-0.729,0.969-2.188,1.432-3.118,0.964c-0.493-0.244-0.753-0.721-1.082-1.324c-0.082-0.151-0.153-0.279-0.217-0.388 c-0.175,0.678-0.538,1.647-1.698,2.017C25.396,49.178,25.2,49.208,25.005,49.208z"></path><path style=" fill:rgb(247, 148, 75);" class="st0" d="M12.395,52.754c-0.133,0-0.266-0.035-0.384-0.106l-1.216-0.724H9.379 c-0.269,0-0.517-0.144-0.65-0.376l-0.749-1.302l-1.292-0.77c-0.23-0.137-0.369-0.386-0.366-0.654l0.018-1.415 l-0.706-1.225c-0.134-0.232-0.134-0.518,0-0.75l0.752-1.303l0.021-1.504c0.004-0.268,0.15-0.514,0.384-0.645l1.236-0.691 l0.703-1.222c0.134-0.232,0.382-0.376,0.65-0.376h1.507l1.313-0.735c0.235-0.13,0.521-0.127,0.751,0.011l1.213,0.724 h1.415c0.269,0,0.517,0.144,0.65,0.376l0.748,1.302l1.294,0.77c0.23,0.137,0.37,0.387,0.366,0.655l-0.021,1.413 l0.708,1.224c0.134,0.232,0.134,0.518,0,0.75l-0.751,1.302l-0.023,1.507c-0.004,0.267-0.15,0.512-0.383,0.643 l-1.232,0.691l-0.707,1.224c-0.134,0.232-0.382,0.375-0.649,0.375h-1.507l-1.311,0.734 C12.647,52.722,12.521,52.754,12.395,52.754z M9.812,50.424h1.189c0.135,0,0.268,0.037,0.384,0.106l1.021,0.608 l1.104-0.618c0.111-0.063,0.238-0.096,0.366-0.096h1.27l0.594-1.027c0.067-0.117,0.165-0.213,0.282-0.279l1.035-0.58 l0.02-1.27c0.002-0.127,0.036-0.252,0.101-0.363l0.632-1.095l-0.595-1.028c-0.067-0.117-0.103-0.251-0.101-0.386 l0.018-1.187l-1.09-0.648c-0.11-0.066-0.202-0.159-0.267-0.271l-0.63-1.096h-1.188c-0.136,0-0.269-0.037-0.385-0.106 l-1.019-0.608l-1.105,0.619c-0.112,0.062-0.238,0.095-0.366,0.095H9.812l-0.59,1.025 c-0.068,0.118-0.166,0.214-0.284,0.281L7.899,43.08l-0.018,1.267c-0.002,0.128-0.036,0.254-0.101,0.365l-0.633,1.097 l0.593,1.028c0.067,0.117,0.103,0.25,0.101,0.384l-0.015,1.188l1.089,0.648c0.11,0.066,0.202,0.159,0.267,0.271 L9.812,50.424z"></path><path style=" fill:rgb(247, 148, 75);" class="st0" d="M36.222,48.768c-0.537,0-1.015-0.448-1.065-0.999c-0.009-0.095,0.001-0.19,0.028-0.281l2.775-9.37 c0.094-0.327,0.375-0.621,0.548-0.776c0.007-0.007,0.015-0.014,0.022-0.021c0.069-0.061,0.115-0.095,0.117-0.097l0.006,0.009 c0.399-0.253,1.652-0.867,6.265-3.109c0.374-0.181,0.822-0.025,1.003,0.347c0.181,0.373,0.025,0.821-0.347,1.002 c-2.176,1.057-5.712,2.786-6.102,3.003c-0.005,0.003-0.01,0.006-0.015,0.01c0.001,0,0.002-0.001,0.002-0.001 c0.01,0-0.041,0.062-0.077,0.109l-2.502,8.445l8.442-2.503c0.041-0.031,0.095-0.078,0.132-0.113 c0.278-0.547,1.883-4.017,2.873-6.172c0.173-0.377,0.622-0.539,0.995-0.369c0.376,0.173,0.541,0.618,0.368,0.995 c-2.217,4.824-2.778,6.039-3.017,6.412l0.008,0.005c-0.004,0.006-0.407,0.529-0.88,0.664v0l-9.368,2.777 C36.365,48.758,36.294,48.768,36.222,48.768z"></path><path style=" fill:rgb(247, 148, 75);" class="st0" d="M49.01,39.315c-0.192,0-0.384-0.073-0.53-0.22l-1.821-1.822c-0.146-0.146-0.22-0.338-0.22-0.53 c0-0.192,0.073-0.384,0.22-0.53c0.294-0.294,0.769-0.292,1.061,0l1.821,1.822c0.146,0.146,0.22,0.338,0.22,0.53 c0,0.192-0.073,0.384-0.22,0.53C49.394,39.242,49.201,39.315,49.01,39.315z"></path><path style=" fill:rgb(247, 148, 75);" class="st0" d="M49.23,39.405c-0.271,0-0.541-0.102-0.748-0.306l-3.641-3.641c-0.201-0.201-0.312-0.469-0.312-0.753 c0-0.284,0.111-0.551,0.312-0.751L57.96,20.835c0.293-0.293,0.768-0.293,1.061,0s0.293,0.768,0,1.061l-12.81,12.811l3.02,3.02 l8.369-8.369c0.293-0.293,0.768-0.293,1.061,0s0.293,0.768,0,1.061l-8.679,8.678C49.774,39.302,49.502,39.405,49.23,39.405z"></path><path style=" fill:rgb(247, 148, 75);" class="st0" d="M36,48.688c-0.19,0-0.382-0.072-0.528-0.217c-0.294-0.292-0.296-0.767-0.004-1.061l7.188-7.25 c0.29-0.294,0.765-0.297,1.061-0.005c0.294,0.292,0.296,0.767,0.004,1.061l-7.188,7.25C36.386,48.613,36.193,48.688,36,48.688z "></path></g></svg>