<svg class="svgicon" xmlns="http://www.w3.org/2000/svg" viewBox="0 0 60 60"><rect x=".9" y=".9" width="58.2" height="58.2" style="stroke-alignment:inside" rx="29.1" ry="29.1" stroke="#f7944b" fill="none" stroke-width="1.8"/><path class="st0" d="M41.856 47.85H14.941a2.272 2.272 0 01-2.269-2.27V14.42a2.272 2.272 0 012.27-2.27h26.914a2.272 2.272 0 012.27 2.27V28.2a.45.45 0 01-.9 0V14.42c0-.756-.615-1.37-1.37-1.37H14.941a1.37 1.37 0 00-1.369 1.37v31.16c0 .756.614 1.37 1.37 1.37h26.914c.755 0 1.37-.614 1.37-1.37V33.114a.45.45 0 01.9 0V45.58a2.272 2.272 0 01-2.27 2.269z" fill="#f7944b"/><path class="st0" d="M39.661 26.138H16.987a.45.45 0 010-.9h22.674a.45.45 0 010 .9zm0 3.562H16.987a.45.45 0 010-.9h22.674a.45.45 0 010 .9zM34.2 33.26H22.448a.45.45 0 010-.9H34.2a.45.45 0 010 .9zm6.75-10.56a.447.447 0 01-.16-.03 84.16 84.16 0 00-5.735-1.919.45.45 0 01-.324-.432v-1.012a.45.45 0 01.9 0v.675c1.586.473 3.054.972 4.07 1.332l-.439-.597a.448.448 0 01.13-.651l.541-.33a66.277 66.277 0 00-2.438-.855.45.45 0 01.28-.855c1.955.643 3.33 1.197 3.344 1.202a.45.45 0 01.064.802l-.904.55 1.034 1.402a.45.45 0 01-.362.718zm-25.114 0a.45.45 0 01-.362-.717l1.034-1.403-.905-.55a.449.449 0 01.071-.804c.014-.006 1.428-.55 3.353-1.184a.45.45 0 01.28.855c-.994.328-1.85.63-2.442.847l.53.322a.448.448 0 01.129.652l-.438.596a86 86 0 014.068-1.332v-.684a.45.45 0 01.9 0v1.02a.45.45 0 01-.324.432 83.58 83.58 0 00-5.732 1.919.44.44 0 01-.162.03z" fill="#f7944b"/><path class="st0" d="M19.192 20.266a.451.451 0 01-.45-.45v-2.604a.45.45 0 01.337-.436c.21-.053 5.18-1.315 9.327-1.315 4.143 0 9.067 1.262 9.275 1.316a.45.45 0 01.337.435v2.604a.45.45 0 01-.562.436c-.05-.012-5.06-1.288-9.05-1.288-3.993 0-9.053 1.276-9.104 1.289a.456.456 0 01-.11.013zm.45-2.7v1.679c1.45-.337 5.407-1.18 8.764-1.18 3.35 0 7.27.84 8.712 1.179v-1.679c-1.188-.285-5.29-1.204-8.712-1.204-3.428 0-7.568.92-8.764 1.205zM38.64 42.733H26.044a.45.45 0 010-.9H38.64a.45.45 0 010 .9zm-11.637-1.208a1.12 1.12 0 01-.532-.136c-.571-.312-.772-1.046-.793-1.128a.45.45 0 01.872-.222c.035.134.172.462.352.56a.222.222 0 00.179.013c.29-.093.365-.335.455-.722.075-.33.178-.786.67-.838.47-.048.785.45 1.087 1.012.092.168.208.38.265.42.144.074.612-.085.762-.343.132-.218.293-.345.483-.383.357-.075.714.187 1.028.416.126.091.235.172.341.231.203.114.48.105.745.078a.449.449 0 11.09.895c-.392.04-.852.049-1.274-.187a4.314 4.314 0 01-.412-.275 5.353 5.353 0 00-.3-.208c-.437.582-1.312.86-1.87.579-.296-.147-.452-.433-.65-.795a8.202 8.202 0 00-.13-.233c-.104.407-.322.989-1.018 1.21a1.136 1.136 0 01-.35.056zm-7.566 2.127a.446.446 0 01-.23-.063l-.73-.435h-.85a.45.45 0 01-.39-.225l-.449-.781-.775-.462a.45.45 0 01-.22-.393l.011-.849-.424-.735a.45.45 0 010-.45l.452-.782.012-.902a.451.451 0 01.23-.387l.742-.415.422-.733a.451.451 0 01.39-.225h.904l.788-.441a.451.451 0 01.45.006l.728.435h.85a.45.45 0 01.39.225l.448.781.777.462a.45.45 0 01.22.393l-.013.848.424.735c.08.139.08.31 0 .45l-.45.78-.014.905a.45.45 0 01-.23.386l-.739.414-.424.735a.45.45 0 01-.39.225h-.904l-.786.44a.442.442 0 01-.22.058zm-1.55-1.398h.714c.08 0 .16.023.23.064l.613.365.662-.371a.446.446 0 01.22-.058h.762l.356-.616a.449.449 0 01.17-.167l.62-.348.012-.762a.444.444 0 01.06-.218l.38-.657-.357-.617a.455.455 0 01-.06-.231l.01-.713-.654-.388a.457.457 0 01-.16-.163l-.378-.658h-.713a.452.452 0 01-.23-.063l-.612-.365-.663.371a.454.454 0 01-.22.057h-.762l-.354.615a.452.452 0 01-.17.169l-.624.348-.01.76a.447.447 0 01-.061.22l-.38.657.356.617c.04.07.062.15.06.23l-.008.713.653.39a.452.452 0 01.16.162l.378.657z" fill="#f7944b"/><path class="st0" d="M33.733 41.26a.663.663 0 01-.639-.599.444.444 0 01.017-.168l1.665-5.622c.056-.196.225-.373.329-.466l.013-.012c.041-.037.069-.057.07-.059l.004.006c.24-.152.991-.52 3.759-1.866a.45.45 0 01.393.81c-1.305.634-3.427 1.671-3.66 1.802a.02.02 0 00-.01.006l.001-.001c.006 0-.024.037-.046.065l-1.501 5.067 5.065-1.501c.025-.019.057-.047.08-.068.166-.328 1.13-2.41 1.723-3.703a.45.45 0 11.818.376c-1.33 2.894-1.667 3.623-1.81 3.846l.005.003c-.003.004-.245.318-.528.399L33.86 41.24a.393.393 0 01-.127.02z" fill="#f7944b"/><path class="st0" d="M41.406 35.589a.446.446 0 01-.318-.132l-1.093-1.093a.449.449 0 11.637-.636l1.093 1.093a.449.449 0 01-.319.768z" fill="#f7944b"/><path class="st0" d="M41.538 35.643a.637.637 0 01-.449-.184l-2.184-2.184a.635.635 0 010-.903l7.871-7.871a.45.45 0 11.637.637l-7.686 7.686 1.812 1.812 5.021-5.021a.45.45 0 11.637.636l-5.208 5.207a.641.641 0 01-.451.185zm-7.938 5.57a.449.449 0 01-.32-.767l4.314-4.35a.45.45 0 11.639.634l-4.313 4.35a.452.452 0 01-.32.133z" fill="#f7944b"/></svg>