<svg class="svgicon" xmlns="http://www.w3.org/2000/svg" viewBox="0 0 60 60"><rect x=".9" y=".9" width="58.2" height="58.2" style="stroke-alignment:inside" rx="29.1" ry="29.1" stroke="#f7944b" fill="none" stroke-width="1.8"/><g transform="matrix(.6 0 0 .6 12 12)"><circle class="st0" cx="29.991" cy="15.185" r="8.599" fill="#f7944b"/><path class="st0" d="M32.107 12.588c-.073-.624-.291-1.115-.65-1.473-.278-.275-.653-.443-1.126-.502h-.483c-.539.066-.949.245-1.229.536-.409.431-.612.997-.612 1.696 0 .395.069.746.208 1.055.139.309.34.549.601.72.353.238.697.395 1.032.469l.418.118c.335.074.68.231 1.033.468.261.171.461.412.6.72.14.309.209.661.209 1.056 0 .699-.204 1.265-.613 1.696-.28.291-.688.469-1.229.536h-.483c-.472-.059-.847-.227-1.125-.502-.359-.358-.577-.849-.65-1.473m1.995 2.377v-9.939M11.771 37.233c.996 1.347 2.309 2.979 3.623 4.196 2.678 2.479 7.574 4.706 7.574 4.706l12.039 7.084c.696.367 1.754.232 2.245-.565.411-.668.262-1.527-.301-2.1l2.522 1.672c.795.474 2.043.384 2.668-.52.424-.614.431-1.4.086-2.053-.163-.309-.703-.834-.703-.834l1.025.583c.84.484 2.148.366 2.79-.591.642-.96.323-2.297-.71-2.988l-.957-.629a1.946 1.946 0 002.096-.743c.625-.877.422-2.094-.838-2.995l-11.199-7.649a66.865 66.865 0 00-1.992-1.336l-1.722-1.458.021-.158c1.272-.046 3.289-.047 3.961.373m-3.942-4.665c-2.478-.186-6.086-1.164-6.97-1.363m-.118 20.934l.012.007-.012-.007z" fill="#f7944b"/><path class="st0" d="M37.96 24.928l-1.071.366c-.885.2-5.562 1.241-8.039 1.426-1.738.131-2.186.674-2.186.674l-3.52 2.407-.539.434s1.213 2.519 3.66.993c.672-.42 2.69-.419 3.963-.373m14.645 10.574c1.125-1.042 2.25-2.389 3.174-3.6m-32.711 3.628c-1.26.901-1.464 2.118-.838 2.995.486.682 1.332.95 2.096.742l-.957.629c-1.034.69-1.352 2.028-.71 2.988.642.958 1.949 1.076 2.79.591l1.843-1.153-.802.602c-.976.672-1.258 1.952-.633 2.856s1.873.994 2.667.52l2.522-1.672c-.562.573-.711 1.432-.3 2.1.491.797 1.549.932 2.245.565l4.926-2.898M1 29.599l9.755 8.202c.972.756 12.465-14.014 11.493-14.768L2.184 6.986m55.709.087L38.326 22.726c-.971.754 10.524 15.524 11.494 14.768L59 29.733M43.674 45.195l-12.792-8.631m10.661 12.289L27.6 39.56m9.335 10.991l-12.427-8.265m-7.914 2.908l2.077-1.315m.889 4.371l3.409-2.115m.345 4.42l3.457-2.155" fill="#f7944b"/></g></svg>