<svg class="svgicon" xmlns="http://www.w3.org/2000/svg" viewBox="0 0 60 60"><rect x=".9" y=".9" width="58.2" height="58.2" style="stroke-alignment:inside" rx="29.1" ry="29.1" stroke="#f7944b" fill="none" stroke-width="1.8"/><g transform="matrix(.6 0 0 .6 12 12)"><path class="st20" d="M10.91 46.925c-1.649-.702-3.723-.306-5.172 1.143-2.77 2.77-2.544 8.706-2.544 8.706s5.98.179 8.705-2.545c1.447-1.448 1.845-3.519 1.145-5.168m21.601-10.905l1.546 7.465s.687 1.856-1.631 3.192c-2.316 1.335-13.685 8.743-13.685 8.743l2.328-10.717m-1.415-21.484l-7.392-1.529s-1.856-.684-3.191 1.631c-1.336 2.316-8.743 13.685-8.743 13.685l10.781-2.34m2.845 13.17c.477.478 1.184.548 1.577.156l2.136-2.135m-7.716-7.668l-2.111 2.111c-.393.393-.322 1.1.155 1.578M32.866 10.62s.284-.318.438-.474C44.812-1.361 56.621 3.42 56.621 3.42s5.101 11.489-6.727 23.316c-.145.145-.442.411-.442.411" fill="#f7944b"/><path class="st20" d="M11.962 38.54c-.423.553-.445 1.169 0 1.613l7.926 7.925c.445.445 1.053.444 1.613-.001l27.988-20.985s-1.805-3.501-7.423-9.119c-4.938-4.937-9.117-7.421-9.117-7.421L11.962 38.54z" fill="#f7944b"/><path class="st20" d="M31.554 22.334a4.656 4.656 0 016.575 0 4.658 4.658 0 010 6.578 4.652 4.652 0 01-6.575 0 4.654 4.654 0 010-6.578zm-6.446 8.62a3.12 3.12 0 014.401 0 3.116 3.116 0 010 4.401 3.114 3.114 0 01-4.401 0 3.118 3.118 0 010-4.401z" fill="#f7944b"/><ellipse transform="rotate(-135.04 56.723 3.312)" class="st20" cx="56.723" cy="3.311" rx="1.025" ry=".952" fill="#f7944b"/></g></svg>