<svg class="svgicon" xmlns="http://www.w3.org/2000/svg" viewBox="0 0 60 60"><rect x=".9" y=".9" width="58.2" height="58.2" style="stroke-alignment:inside" rx="29.1" ry="29.1" stroke="#f7944b" fill="none" stroke-width="1.8"/><path class="st0" d="M29.9 45.743a3.089 3.089 0 01-2.145-.86c-1.572-1.26-15.605-12.778-15.605-20.868 0-5.654 4.103-9.758 9.757-9.758a9.73 9.73 0 018.053 4.25c1.811-2.651 4.857-4.25 8.131-4.25 5.655 0 9.76 4.104 9.76 9.758 0 3.193-2.3 7.36-6.838 12.388a.451.451 0 01-.668-.603c4.32-4.788 6.606-8.864 6.606-11.785 0-5.132-3.726-8.858-8.86-8.858a8.954 8.954 0 00-7.409 3.885l-.38.484a.45.45 0 01-.707-.001l-.24-.306c-1.668-2.555-4.444-4.061-7.448-4.061-5.132 0-8.857 3.725-8.857 8.858 0 7.803 14.672 19.69 15.297 20.193.882.837 2.254.812 3.076.024a87.078 87.078 0 005.045-4.464.45.45 0 11.622.65 86.68 86.68 0 01-5.073 4.49 3.06 3.06 0 01-2.117.834z" fill="#f7944b"/><path class="st0" d="M46.263 28.714H42.9a.45.45 0 010-.9h3.363a.45.45 0 010 .9zm-1.36 2.424H43.45a.45.45 0 010-.9h1.453a.45.45 0 010 .9zm-16.147 0H15.01a.45.45 0 010-.9h13.747a.45.45 0 010 .9zm-.66-2.424h-14.41a.45.45 0 010-.9h14.41a.45.45 0 110 .9zm5.269 11.59a.3.3 0 01-.123-.025.448.448 0 01-.264-.427l.038-.97-1.025.623a.448.448 0 01-.417.026.486.486 0 01-.253-.283c-.087-.267.018-.449.6-1.457.519-.898 1.303-2.256 1.822-3.558.35-.885.515-1.777.591-2.37a.45.45 0 11.893.115 11.02 11.02 0 01-.648 2.587c-.481 1.205-1.163 2.431-1.683 3.335l.367-.223a.45.45 0 01.684.402l-.026.673c.687-.829 1.712-2.238 2.393-3.596a.45.45 0 11.804.404c-.36.719-2.778 4.744-3.753 4.744z" fill="#f7944b"/><path class="st0" d="M40.5 43.575a.45.45 0 01-.359-.178l-1.94-2.564-1.065 1.637a.449.449 0 01-.34.203.47.47 0 01-.383-.15c-.19-.207-.172-.402-.062-1.677.116-1.34.312-3.58.094-5.327-.269-2.131-1.2-3.946-1.21-3.964a.463.463 0 01-.049-.17.536.536 0 01.147-.41c.48-.518 2.636-.55 2.658-.55.354 0 1.062 0 1.208.456.209.382 1.32 2.493 1.744 4.891.445 2.525.338 7.088-.067 7.614a.508.508 0 01-.376.189zM38.173 39.6a.45.45 0 01.358.178l1.711 2.26c.115-1.39.17-4.1-.185-6.11-.384-2.173-1.397-4.148-1.628-4.577a2.857 2.857 0 00-.438-.026c-.645 0-1.378.103-1.771.202.305.678.903 2.17 1.119 3.88.212 1.706.056 3.805-.063 5.198l.52-.8a.45.45 0 01.362-.204l.015-.001z" fill="#f7944b"/><path class="st0" d="M30.421 34.868a1.4 1.4 0 01-.73-.206 1.396 1.396 0 01-.634-.868l-1.197-4.876a1.41 1.41 0 011.032-1.7.439.439 0 01.138-.012l5.256.351a.45.45 0 11-.06.899l-5.175-.347a.509.509 0 00-.316.595l1.197 4.877a.509.509 0 00.554.383l4.915-3a.45.45 0 11.468.769l-4.985 3.042a.426.426 0 01-.127.053c-.11.027-.224.04-.336.04zm12.223-3.084l-.034-.001-3.87-.29a.45.45 0 11.069-.898l3.787.284a.505.505 0 00.314-.593l-1.196-4.88a.507.507 0 00-.544-.382l-3.95 2.69a.45.45 0 11-.507-.743l4.029-2.744a.447.447 0 01.146-.066 1.408 1.408 0 011.7 1.031l1.195 4.878c.09.362.034.739-.16 1.06-.194.323-.503.55-.87.64a.448.448 0 01-.109.014z" fill="#f7944b"/><path class="st0" d="M35.636 31.798a.45.45 0 01-.42-.29l-1.289-3.393a.45.45 0 01.092-.467c1.107-1.182 2.97-.763 3.05-.744a.45.45 0 01.28.202c.047.076 1.15 1.876 1.848 3.782a.45.45 0 11-.844.31c-.546-1.49-1.379-2.957-1.667-3.448-.363-.05-1.21-.104-1.808.334l1.179 3.104a.45.45 0 01-.421.61z" fill="#f7944b"/></svg>