<svg class="svgicon" xmlns="http://www.w3.org/2000/svg" viewBox="0 0 128 128"><rect width="128" height="128" rx="50%" ry="50%" fill="transparent"/><path class="st0" d="M54.458 35.043l.067-.004c.019.045.041.107.066.187.01.035.021.068.034.101l4.917 13.293a.743.743 0 01.041.168 1.71 1.71 0 001.655 2.983c1.777-.824 2.096-2.831 1.502-4.363l-4.891-13.222c-.561-1.8-1.867-2.703-3.682-2.551a1.711 1.711 0 00.291 3.408z"/><path class="st0" d="M73.178 75.041a1.711 1.711 0 00-1.211-.507h-.004c-.454 0-.888.18-1.21.501-.304.304-.537.57-.754.818-.373.427-.598.685-1.142 1.049-.418.278-1.009.078-1.333-.408l-13.35-20.112c-.369-.553-.294-1.36.15-1.657.53-.353.61-.382.996-.518.269-.096.635-.225 1.218-.473a1.71 1.71 0 00.926-2.194l-6.747-17.337a1.712 1.712 0 00-2.305-.935 21.89 21.89 0 00-6.136 4.167c-1.927 1.889-3.938 4.661-4.679 6.447a1.704 1.704 0 00-.126.782c.545 7.313 5.447 19.015 12.197 29.118 6.645 9.948 15.788 19.166 22.235 22.416.238.12.502.183.77.183h.001c2.528-.003 5.85-1.305 7.177-1.871 2.456-1.078 4.991-2.62 6.311-3.838a1.712 1.712 0 00.056-2.46l-13.04-13.17z"/><path class="st0" d="M89.712 82.477a1.609 1.609 0 00-.122-.134l-10.388-10.2c-1.169-1.107-3.19-1.573-4.635-.255a1.709 1.709 0 002.153 2.65c.04.019.082.044.106.066L87.08 84.671a.735.735 0 01-.038.556 1.71 1.71 0 002.995 1.652c.767-1.39.631-3.241-.325-4.402z"/></svg>